<?xml version="1.0" encoding="UTF-8" standalone="no"?>
<svg
   width="24"
   height="24"
   viewBox="0 0 24 24"
   fill="none"
   version="1.1"
   id="svg1"
   sodipodi:docname="navigation_extra_tools.svg"
   xml:space="preserve"
   inkscape:version="1.4 (1:1.4+202410151213+e7c3feb100)"
   xmlns:inkscape="http://www.inkscape.org/namespaces/inkscape"
   xmlns:sodipodi="http://sodipodi.sourceforge.net/DTD/sodipodi-0.dtd"
   xmlns="http://www.w3.org/2000/svg"
   xmlns:svg="http://www.w3.org/2000/svg"><defs
     id="defs1" /><sodipodi:namedview
     id="namedview1"
     pagecolor="#ffffff"
     bordercolor="#666666"
     borderopacity="1.0"
     inkscape:showpageshadow="2"
     inkscape:pageopacity="0.0"
     inkscape:pagecheckerboard="false"
     inkscape:deskcolor="#d1d1d1"
     inkscape:zoom="35.296414"
     inkscape:cx="11.077613"
     inkscape:cy="13.145812"
     inkscape:window-width="2560"
     inkscape:window-height="1403"
     inkscape:window-x="0"
     inkscape:window-y="0"
     inkscape:window-maximized="1"
     inkscape:current-layer="svg1" /><path
     id="path3"
     style="fill:#000000;stroke-width:147.616;fill-opacity:1"
     d="m 7306.6223,8369.1095 -939.6044,-942.5453 639.6368,-641.1072 c 902.8437,-907.255 1346.9134,-1374.8516 1796.8649,-1898.3245 488.1826,-567.5858 794.0319,-1013.1259 844.0265,-1235.1608 7.3521,-36.7607 17.6451,-204.3897 23.5269,-374.9596 27.9381,-1070.4726 244.0913,-1742.4589 717.569,-2237.9936 211.742,-222.03495 413.191,-369.07785 701.395,-511.70955 624.933,-311.731 1429.258,-467.596599 2576.193,-501.416399 l 347.021,-10.293 119.105,236.739099 119.105,238.2096 -76.463,44.1129 c -42.642,23.5268 -596.994,341.1396 -1232.219,704.33575 l -1154.288,660.2228 2.941,180.8628 c 17.645,1039.5937 519.062,1926.2627 1389.556,2451.206 l 127.927,77.9328 1188.107,-679.3384 c 652.871,-373.4891 1208.694,-691.1019 1235.161,-707.2767 l 47.054,-27.9381 58.817,117.6343 58.817,116.164 -41.172,123.5161 c -102.93,302.9085 -291.145,707.2766 -461.715,989.5991 -607.287,1005.7737 -1518.953,1592.4751 -2752.644,1770.3971 -236.739,33.8198 -567.585,60.2876 -776.386,60.2876 -223.506,0 -380.842,61.758 -694.043,269.0886 -498.476,332.317 -1139.583,907.255 -2315.9264,2079.1873 -327.9058,324.9649 -599.9352,592.5831 -602.8761,591.1127 -4.4113,0 -429.3654,-424.9542 -945.4862,-942.5454 z m 5658.2127,8125.5935 c -638.166,-447.011 -1170.462,-827.852 -1180.755,-846.967 -10.293,-19.116 -67.64,-235.269 -129.398,-482.301 L 11544.4,14718.424 8133.0037,11309.968 4723.0777,7901.513 4252.5403,8195.5989 3782.0028,8489.6848 3546.7341,8254.416 c -229.387,-229.387 -235.2687,-238.2095 -235.2687,-298.4971 0,-89.6962 -24.9973,-251.4435 -58.8172,-380.8413 C 3115.8983,7042.7821 2663.006,6534.0135 2038.0734,6214.9303 1732.2241,6057.5944 1398.4366,5948.7826 1108.762,5913.4923 L 957.3078,5894.3767 -985.12955,3953.4098 -2927.567,2013.9132 l 10.293,-126.4569 c 39.7016,-532.2955 344.0805,-1107.23345 833.7335,-1580.71175 422.0133,-407.309 883.7282,-655.8116 1373.38125,-735.2148 73.52147,-11.7634 161.74724,-22.0564 197.03755,-22.0564 h 64.6989 L 1491.0737,1488.9699 c 1793.9239,1796.8648 1938.026,1943.9078 1938.026,1989.4911 0,158.8064 80.8737,489.653 179.3924,739.6261 307.3198,773.4459 867.5534,1341.0317 1492.486,1507.1902 63.2284,17.6452 191.1558,38.2312 286.7337,48.5242 l 170.5699,16.1747 230.8574,229.387 230.8574,230.8574 -295.5563,472.0079 -295.5563,473.4783 3396.6921,3395.2212 c 1868.916,1865.976 3406.985,3402.574 3418.748,3412.867 11.764,10.293 227.917,69.111 479.361,132.339 251.443,63.229 466.126,123.516 476.419,135.28 10.293,10.293 383.782,539.647 829.322,1176.343 l 808.736,1157.228 -305.849,305.85 c -169.1,167.628 -329.376,326.435 -355.844,351.432 l -49.995,47.054 z m -13651.46738,1173.403 -119.10479,-238.21 76.46233,-44.113 c 42.64246,-23.527 596.99438,-341.139 1232.21992,-704.335 l 1154.28712,-660.223 -2.9409,-188.215 c -4.4113,-230.858 -35.2903,-457.304 -92.637,-694.043 C 1379.321,14391.989 932.3105,13793.524 250.03121,13380.333 l -113.22307,-69.11 -1188.10704,679.339 c -652.8707,373.489 -1208.6931,691.101 -1235.1608,707.276 l -47.0538,27.938 -60.2876,-117.634 -58.8172,-119.105 66.1694,-185.274 c 251.4434,-689.631 638.1664,-1313.094 1070.4726,-1721.873 689.63153,-651.4 1598.35696,-991.069 2759.9962,-1027.83 311.7311,-10.293 380.8413,-23.527 554.3519,-116.164 336.7284,-177.922 767.5642,-514.65 1416.0236,-1102.822 347.0214,-314.672 519.0617,-480.8307 1060.1797,-1019.0079 l 480.8305,-476.4191 944.0157,944.0157 945.4862,942.5453 -507.2982,510.239 c -1360.1473,1367.5 -2157.1201,2286.518 -2449.7356,2826.166 -89.6962,166.158 -101.4596,230.857 -111.7526,580.819 -20.586,723.452 -117.6344,1220.457 -319.0832,1652.763 -197.0376,420.543 -535.2363,783.739 -951.3679,1019.008 -635.2255,360.255 -1498.3676,544.059 -2726.17623,579.349 l -347.02136,10.293 z"
     transform="matrix(9.0322989e-4,0,0,-9.0322989e-4,6.1428684,19.882631)" /></svg>
